# xmcd
#
# Track frame offsets:
#	150
#	12759
#	26392
#	37416
#	48566
#	58426
#	68349
#	80996
#	91112
#	104754
#	115387
#	126322
#	138692
#	151038
#	160917
#	171858
#	182556
#	196566
#	207994
#	219123
#	230545
#	241955
#	252312
#	264359
#	274721
#	285698
#	298998
#	308555
#
# Disc length: 4278 seconds
#
# Revision: 0
# Processed by: cddbd v1.5.2PL0 Copyright (c) Steve Scherf et al.
# Submitted via: EZCDAudioConverter 2.2.2.1
#
DISCID=9b10b41c
DTITLE=Betty Cody - The Successful Hillbilly Era Of [1952-1954]
DYEAR=1900
DGENRE=Country
TTITLE0=Pale Moon (1953)
TTITLE1=Tom-Tom Yodel (1953)
TTITLE2=Keep Your Promise, Willie Thomas (1953)
TTITLE3=Phonograph Record (1953)
TTITLE4=Keep Your Shirt On John (& Hal Lone Pine) (1953)
TTITLE5=Don't Stop - I Like It! (& Hal Lone Pine) (1952)
TTITLE6=O Mama Come Home (& Hal Lone Pine) (1952)
TTITLE7=You Broke My Heart In 15 Million Pieces (1952)
TTITLE8=You Can't Feel The Way I Do (1953)
TTITLE9=Please Throw Away The Glass (1953)
TTITLE10=The Kiss That Made A Fool Of Me (1954)
TTITLE11=A Letter I Should Never Have Mailed (1954)
TTITLE12=Of All The Songs We Ever Sang (& Hal Lone Pine) (1953)
TTITLE13=Dear Sister (1953)
TTITLE14=Can You Live With Yourself (1953)
TTITLE15=Don't Believe Everything That You Read About Love (1953)
TTITLE16=I Found Out More Than You Ever Knew (1953)
TTITLE17=Jealous Love (& Hal Lone Pine) (1953)
TTITLE18=I'm Talkin', Start Walkin' (& Hal Lone Pine) (1953)
TTITLE19=Tear Down The Mountains (1953)
TTITLE20=I Really Want You To Know (1953)
TTITLE21=Heart To Heart Talk (Let's Talk It Over) (& Hal Lone Pine) (1954)
TTITLE22=How To Get Married (& Hal Lone Pine) (1954)
TTITLE23=Always A Bridesmaid (1953)
TTITLE24=You Want More Of Me (Than I Can Give You) (1953)
TTITLE25=Columbus Stockade Blues (& Hal Lone Pine) (1952)
TTITLE26=In Sunny Tennessee (& Hal Lone Pine) (1953)
TTITLE27=I Hate Myself For Loving You So Much (1953)
EXTD=
EXTT0=
EXTT1=
EXTT2=
EXTT3=
EXTT4=
EXTT5=
EXTT6=
EXTT7=
EXTT8=
EXTT9=
EXTT10=
EXTT11=
EXTT12=
EXTT13=
EXTT14=
EXTT15=
EXTT16=
EXTT17=
EXTT18=
EXTT19=
EXTT20=
EXTT21=
EXTT22=
EXTT23=
EXTT24=
EXTT25=
EXTT26=
EXTT27=
PLAYORDER=
